<mxfile host="Electron" modified="2024-01-19T08:43:18.612Z" agent="Mozilla/5.0 (Windows NT 10.0; Win64; x64) AppleWebKit/537.36 (KHTML, like Gecko) draw.io/22.1.21 Chrome/120.0.6099.109 Electron/28.1.0 Safari/537.36" etag="qS8liRsp4oGzFZulPEX-" version="22.1.21" type="device">
  <diagram name="Страница — 1" id="RhKs6hMjdKy5DjP69z61">
    <mxGraphModel dx="2796" dy="2162" grid="1" gridSize="10" guides="1" tooltips="1" connect="1" arrows="1" fold="1" page="1" pageScale="1" pageWidth="827" pageHeight="1169" math="0" shadow="0">
      <root>
        <mxCell id="0" />
        <mxCell id="1" parent="0" />
        <mxCell id="9N4TQlj-FH_inLGHtenE-7" value="" style="rounded=1;whiteSpace=wrap;html=1;" vertex="1" parent="1">
          <mxGeometry x="112.5" y="347.5" width="590" height="560" as="geometry" />
        </mxCell>
        <mxCell id="9N4TQlj-FH_inLGHtenE-5" value="" style="rounded=1;whiteSpace=wrap;html=1;" vertex="1" parent="1">
          <mxGeometry x="90" y="315" width="590" height="560" as="geometry" />
        </mxCell>
        <mxCell id="9N4TQlj-FH_inLGHtenE-1" value="" style="rounded=1;whiteSpace=wrap;html=1;" vertex="1" parent="1">
          <mxGeometry x="66" y="256.75" width="590" height="560" as="geometry" />
        </mxCell>
        <mxCell id="HtqLpuslJJa8VXAWMYaq-2" style="edgeStyle=orthogonalEdgeStyle;rounded=0;orthogonalLoop=1;jettySize=auto;html=1;exitX=0.25;exitY=1;exitDx=0;exitDy=0;entryX=0.25;entryY=0;entryDx=0;entryDy=0;" parent="1" source="Y-ZxyNCmFBmih7vuNgWr-3" target="HtqLpuslJJa8VXAWMYaq-1" edge="1">
          <mxGeometry relative="1" as="geometry" />
        </mxCell>
        <mxCell id="Y-ZxyNCmFBmih7vuNgWr-3" value="Microblaze" style="rounded=0;whiteSpace=wrap;html=1;" parent="1" vertex="1">
          <mxGeometry x="250" y="-150" width="110" height="40" as="geometry" />
        </mxCell>
        <mxCell id="Y-ZxyNCmFBmih7vuNgWr-5" value="" style="rounded=1;whiteSpace=wrap;html=1;" parent="1" vertex="1">
          <mxGeometry x="40" y="230" width="590" height="560" as="geometry" />
        </mxCell>
        <mxCell id="Y-ZxyNCmFBmih7vuNgWr-6" value="Iteration 0" style="text;html=1;align=center;verticalAlign=middle;resizable=0;points=[];autosize=1;strokeColor=none;fillColor=none;" parent="1" vertex="1">
          <mxGeometry x="305" y="200" width="80" height="30" as="geometry" />
        </mxCell>
        <mxCell id="Y-ZxyNCmFBmih7vuNgWr-7" value="fmul" style="shape=step;perimeter=stepPerimeter;whiteSpace=wrap;html=1;fixedSize=1;" parent="1" vertex="1">
          <mxGeometry x="496" y="345" width="70" height="80" as="geometry" />
        </mxCell>
        <mxCell id="Y-ZxyNCmFBmih7vuNgWr-8" value="depth" style="rounded=0;whiteSpace=wrap;html=1;" parent="1" vertex="1">
          <mxGeometry x="340" y="20" width="110" height="40" as="geometry" />
        </mxCell>
        <mxCell id="Y-ZxyNCmFBmih7vuNgWr-9" value="" style="endArrow=classic;html=1;rounded=0;entryX=0;entryY=0.5;entryDx=0;entryDy=0;exitX=0.5;exitY=1;exitDx=0;exitDy=0;" parent="1" source="HtqLpuslJJa8VXAWMYaq-1" target="Y-ZxyNCmFBmih7vuNgWr-8" edge="1">
          <mxGeometry width="50" height="50" relative="1" as="geometry">
            <mxPoint x="150" y="100" as="sourcePoint" />
            <mxPoint x="420" y="160" as="targetPoint" />
            <Array as="points">
              <mxPoint x="305" y="40" />
            </Array>
          </mxGeometry>
        </mxCell>
        <mxCell id="Y-ZxyNCmFBmih7vuNgWr-10" value="&amp;nbsp;+ 1" style="shape=step;perimeter=stepPerimeter;whiteSpace=wrap;html=1;fixedSize=1;rotation=0;" parent="1" vertex="1">
          <mxGeometry x="480" y="20" width="76" height="40" as="geometry" />
        </mxCell>
        <mxCell id="Y-ZxyNCmFBmih7vuNgWr-11" value="1 / x" style="shape=step;perimeter=stepPerimeter;whiteSpace=wrap;html=1;fixedSize=1;rotation=0;" parent="1" vertex="1">
          <mxGeometry x="580" y="20" width="76" height="40" as="geometry" />
        </mxCell>
        <mxCell id="Y-ZxyNCmFBmih7vuNgWr-12" value="" style="endArrow=classic;html=1;rounded=0;entryX=0;entryY=0.5;entryDx=0;entryDy=0;exitX=1;exitY=0.5;exitDx=0;exitDy=0;" parent="1" source="Y-ZxyNCmFBmih7vuNgWr-8" target="Y-ZxyNCmFBmih7vuNgWr-10" edge="1">
          <mxGeometry width="50" height="50" relative="1" as="geometry">
            <mxPoint x="370" y="220" as="sourcePoint" />
            <mxPoint x="420" y="170" as="targetPoint" />
          </mxGeometry>
        </mxCell>
        <mxCell id="Y-ZxyNCmFBmih7vuNgWr-13" value="" style="endArrow=classic;html=1;rounded=0;entryX=0;entryY=0.5;entryDx=0;entryDy=0;exitX=1;exitY=0.5;exitDx=0;exitDy=0;" parent="1" source="Y-ZxyNCmFBmih7vuNgWr-10" target="Y-ZxyNCmFBmih7vuNgWr-11" edge="1">
          <mxGeometry width="50" height="50" relative="1" as="geometry">
            <mxPoint x="370" y="220" as="sourcePoint" />
            <mxPoint x="420" y="170" as="targetPoint" />
          </mxGeometry>
        </mxCell>
        <mxCell id="HtqLpuslJJa8VXAWMYaq-50" style="edgeStyle=orthogonalEdgeStyle;rounded=0;orthogonalLoop=1;jettySize=auto;html=1;exitX=0.5;exitY=1;exitDx=0;exitDy=0;entryX=0;entryY=0.5;entryDx=0;entryDy=0;" parent="1" source="Y-ZxyNCmFBmih7vuNgWr-20" target="Y-ZxyNCmFBmih7vuNgWr-45" edge="1">
          <mxGeometry relative="1" as="geometry">
            <Array as="points">
              <mxPoint x="395" y="370" />
              <mxPoint x="270" y="370" />
              <mxPoint x="270" y="413" />
            </Array>
          </mxGeometry>
        </mxCell>
        <mxCell id="HtqLpuslJJa8VXAWMYaq-51" style="edgeStyle=orthogonalEdgeStyle;rounded=0;orthogonalLoop=1;jettySize=auto;html=1;exitX=0.5;exitY=1;exitDx=0;exitDy=0;entryX=0;entryY=0.5;entryDx=0;entryDy=0;" parent="1" source="Y-ZxyNCmFBmih7vuNgWr-20" target="Y-ZxyNCmFBmih7vuNgWr-42" edge="1">
          <mxGeometry relative="1" as="geometry">
            <Array as="points">
              <mxPoint x="395" y="370" />
              <mxPoint x="130" y="370" />
              <mxPoint x="130" y="338" />
              <mxPoint x="165" y="338" />
            </Array>
          </mxGeometry>
        </mxCell>
        <mxCell id="HtqLpuslJJa8VXAWMYaq-55" style="edgeStyle=orthogonalEdgeStyle;rounded=0;orthogonalLoop=1;jettySize=auto;html=1;exitX=0.5;exitY=1;exitDx=0;exitDy=0;entryX=1;entryY=0.5;entryDx=0;entryDy=0;" parent="1" source="Y-ZxyNCmFBmih7vuNgWr-20" target="HtqLpuslJJa8VXAWMYaq-54" edge="1">
          <mxGeometry relative="1" as="geometry">
            <Array as="points">
              <mxPoint x="430" y="328" />
              <mxPoint x="430" y="488" />
              <mxPoint x="352" y="488" />
            </Array>
          </mxGeometry>
        </mxCell>
        <mxCell id="Y-ZxyNCmFBmih7vuNgWr-20" value="iter counter" style="rounded=0;whiteSpace=wrap;html=1;" parent="1" vertex="1">
          <mxGeometry x="346.5" y="292.5" width="97" height="35" as="geometry" />
        </mxCell>
        <mxCell id="HtqLpuslJJa8VXAWMYaq-56" style="edgeStyle=orthogonalEdgeStyle;rounded=0;orthogonalLoop=1;jettySize=auto;html=1;exitX=1;exitY=0.5;exitDx=0;exitDy=0;entryX=0.5;entryY=0;entryDx=0;entryDy=0;" parent="1" source="Y-ZxyNCmFBmih7vuNgWr-25" target="HtqLpuslJJa8VXAWMYaq-54" edge="1">
          <mxGeometry relative="1" as="geometry" />
        </mxCell>
        <mxCell id="Y-ZxyNCmFBmih7vuNgWr-25" value="sum" style="rounded=0;whiteSpace=wrap;html=1;" parent="1" vertex="1">
          <mxGeometry x="182.5" y="678" width="97" height="35" as="geometry" />
        </mxCell>
        <mxCell id="Y-ZxyNCmFBmih7vuNgWr-26" value="out_addr" style="rounded=0;whiteSpace=wrap;html=1;" parent="1" vertex="1">
          <mxGeometry x="510" y="610" width="97" height="35" as="geometry" />
        </mxCell>
        <mxCell id="Y-ZxyNCmFBmih7vuNgWr-27" value="coef" style="rounded=0;whiteSpace=wrap;html=1;" parent="1" vertex="1">
          <mxGeometry x="650" y="80" width="97" height="35" as="geometry" />
        </mxCell>
        <mxCell id="Y-ZxyNCmFBmih7vuNgWr-28" value="" style="endArrow=classic;html=1;rounded=0;exitX=1;exitY=0.5;exitDx=0;exitDy=0;entryX=0.5;entryY=0;entryDx=0;entryDy=0;edgeStyle=orthogonalEdgeStyle;" parent="1" source="Y-ZxyNCmFBmih7vuNgWr-11" target="Y-ZxyNCmFBmih7vuNgWr-27" edge="1">
          <mxGeometry width="50" height="50" relative="1" as="geometry">
            <mxPoint x="270" y="440" as="sourcePoint" />
            <mxPoint x="320" y="390" as="targetPoint" />
          </mxGeometry>
        </mxCell>
        <mxCell id="Y-ZxyNCmFBmih7vuNgWr-29" value="" style="endArrow=classic;html=1;rounded=0;exitX=0.5;exitY=1;exitDx=0;exitDy=0;entryX=0.152;entryY=0.244;entryDx=0;entryDy=0;entryPerimeter=0;edgeStyle=orthogonalEdgeStyle;" parent="1" source="Y-ZxyNCmFBmih7vuNgWr-27" target="Y-ZxyNCmFBmih7vuNgWr-7" edge="1">
          <mxGeometry width="50" height="50" relative="1" as="geometry">
            <mxPoint x="500" y="440" as="sourcePoint" />
            <mxPoint x="550" y="390" as="targetPoint" />
            <Array as="points">
              <mxPoint x="699" y="260" />
              <mxPoint x="479" y="260" />
              <mxPoint x="479" y="365" />
            </Array>
          </mxGeometry>
        </mxCell>
        <mxCell id="Y-ZxyNCmFBmih7vuNgWr-33" value="" style="shape=step;perimeter=stepPerimeter;whiteSpace=wrap;html=1;fixedSize=1;rotation=90;" parent="1" vertex="1">
          <mxGeometry x="102.5" y="548" width="80" height="140" as="geometry" />
        </mxCell>
        <mxCell id="Y-ZxyNCmFBmih7vuNgWr-34" value="fadd" style="text;html=1;strokeColor=none;fillColor=none;align=center;verticalAlign=middle;whiteSpace=wrap;rounded=0;" parent="1" vertex="1">
          <mxGeometry x="112.5" y="608" width="60" height="30" as="geometry" />
        </mxCell>
        <mxCell id="Y-ZxyNCmFBmih7vuNgWr-39" value="" style="endArrow=classic;html=1;rounded=0;exitX=1;exitY=0.5;exitDx=0;exitDy=0;entryX=0;entryY=0.5;entryDx=0;entryDy=0;edgeStyle=orthogonalEdgeStyle;" parent="1" source="Y-ZxyNCmFBmih7vuNgWr-33" target="Y-ZxyNCmFBmih7vuNgWr-25" edge="1">
          <mxGeometry width="50" height="50" relative="1" as="geometry">
            <mxPoint x="262.5" y="695.5" as="sourcePoint" />
            <mxPoint x="497.5" y="463" as="targetPoint" />
          </mxGeometry>
        </mxCell>
        <mxCell id="HtqLpuslJJa8VXAWMYaq-52" style="edgeStyle=orthogonalEdgeStyle;rounded=0;orthogonalLoop=1;jettySize=auto;html=1;exitX=1;exitY=0.5;exitDx=0;exitDy=0;entryX=0.75;entryY=1;entryDx=0;entryDy=0;" parent="1" source="Y-ZxyNCmFBmih7vuNgWr-42" target="HtqLpuslJJa8VXAWMYaq-42" edge="1">
          <mxGeometry relative="1" as="geometry">
            <Array as="points">
              <mxPoint x="215" y="336" />
            </Array>
          </mxGeometry>
        </mxCell>
        <mxCell id="Y-ZxyNCmFBmih7vuNgWr-42" value="+1" style="shape=step;perimeter=stepPerimeter;whiteSpace=wrap;html=1;fixedSize=1;" parent="1" vertex="1">
          <mxGeometry x="145" y="315" width="70" height="45" as="geometry" />
        </mxCell>
        <mxCell id="Y-ZxyNCmFBmih7vuNgWr-45" value="4x + inp_base" style="shape=step;perimeter=stepPerimeter;whiteSpace=wrap;html=1;fixedSize=1;size=10;" parent="1" vertex="1">
          <mxGeometry x="284" y="390" width="110" height="45" as="geometry" />
        </mxCell>
        <mxCell id="Y-ZxyNCmFBmih7vuNgWr-54" value="" style="endArrow=classic;html=1;rounded=0;exitX=1;exitY=0.5;exitDx=0;exitDy=0;edgeStyle=orthogonalEdgeStyle;entryX=0.5;entryY=0;entryDx=0;entryDy=0;" parent="1" source="Y-ZxyNCmFBmih7vuNgWr-45" target="HtqLpuslJJa8VXAWMYaq-27" edge="1">
          <mxGeometry width="50" height="50" relative="1" as="geometry">
            <mxPoint x="393.5" y="362.5" as="sourcePoint" />
            <mxPoint x="-100" y="170" as="targetPoint" />
            <Array as="points">
              <mxPoint x="410" y="412" />
              <mxPoint x="410" y="470" />
              <mxPoint x="-120" y="470" />
            </Array>
          </mxGeometry>
        </mxCell>
        <mxCell id="Y-ZxyNCmFBmih7vuNgWr-56" value="" style="endArrow=classic;html=1;rounded=0;exitX=1;exitY=0.5;exitDx=0;exitDy=0;entryX=0.5;entryY=1;entryDx=0;entryDy=0;edgeStyle=orthogonalEdgeStyle;" parent="1" source="Y-ZxyNCmFBmih7vuNgWr-26" target="HtqLpuslJJa8VXAWMYaq-11" edge="1">
          <mxGeometry width="50" height="50" relative="1" as="geometry">
            <mxPoint x="20" y="400" as="sourcePoint" />
            <mxPoint x="148.8599999999999" y="144.64" as="targetPoint" />
            <Array as="points">
              <mxPoint x="650" y="628" />
              <mxPoint x="806" y="628" />
            </Array>
          </mxGeometry>
        </mxCell>
        <mxCell id="Y-ZxyNCmFBmih7vuNgWr-59" value="&lt;font style=&quot;font-size: 40px;&quot;&gt;&lt;b&gt;X 10&lt;/b&gt;&lt;/font&gt;" style="text;html=1;strokeColor=none;fillColor=none;align=center;verticalAlign=middle;whiteSpace=wrap;rounded=0;" parent="1" vertex="1">
          <mxGeometry x="702.5" y="780" width="110" height="175" as="geometry" />
        </mxCell>
        <mxCell id="HtqLpuslJJa8VXAWMYaq-3" style="edgeStyle=orthogonalEdgeStyle;rounded=0;orthogonalLoop=1;jettySize=auto;html=1;exitX=0.75;exitY=0;exitDx=0;exitDy=0;entryX=0.75;entryY=1;entryDx=0;entryDy=0;" parent="1" source="HtqLpuslJJa8VXAWMYaq-1" target="Y-ZxyNCmFBmih7vuNgWr-3" edge="1">
          <mxGeometry relative="1" as="geometry" />
        </mxCell>
        <mxCell id="HtqLpuslJJa8VXAWMYaq-10" style="edgeStyle=orthogonalEdgeStyle;rounded=0;orthogonalLoop=1;jettySize=auto;html=1;exitX=0.25;exitY=1;exitDx=0;exitDy=0;entryX=0.5;entryY=0;entryDx=0;entryDy=0;" parent="1" source="HtqLpuslJJa8VXAWMYaq-1" target="HtqLpuslJJa8VXAWMYaq-7" edge="1">
          <mxGeometry relative="1" as="geometry">
            <mxPoint x="190" as="targetPoint" />
          </mxGeometry>
        </mxCell>
        <mxCell id="HtqLpuslJJa8VXAWMYaq-1" value="AXI ctrl" style="rounded=0;whiteSpace=wrap;html=1;" parent="1" vertex="1">
          <mxGeometry x="175" y="-70" width="260" height="40" as="geometry" />
        </mxCell>
        <mxCell id="HtqLpuslJJa8VXAWMYaq-6" value="" style="group" parent="1" vertex="1" connectable="0">
          <mxGeometry x="145" y="10" width="110" height="40" as="geometry" />
        </mxCell>
        <mxCell id="HtqLpuslJJa8VXAWMYaq-7" value="CTRL&amp;nbsp; &amp;nbsp; &amp;nbsp; &amp;nbsp;R&amp;nbsp; &amp;nbsp; &amp;nbsp; S" style="rounded=0;whiteSpace=wrap;html=1;" parent="HtqLpuslJJa8VXAWMYaq-6" vertex="1">
          <mxGeometry width="110" height="40" as="geometry" />
        </mxCell>
        <mxCell id="HtqLpuslJJa8VXAWMYaq-8" value="" style="endArrow=none;html=1;rounded=0;entryX=0.75;entryY=0;entryDx=0;entryDy=0;exitX=0.75;exitY=1;exitDx=0;exitDy=0;" parent="HtqLpuslJJa8VXAWMYaq-6" source="HtqLpuslJJa8VXAWMYaq-7" target="HtqLpuslJJa8VXAWMYaq-7" edge="1">
          <mxGeometry width="50" height="50" relative="1" as="geometry">
            <mxPoint x="325" y="280" as="sourcePoint" />
            <mxPoint x="375" y="230" as="targetPoint" />
          </mxGeometry>
        </mxCell>
        <mxCell id="HtqLpuslJJa8VXAWMYaq-9" value="" style="endArrow=none;html=1;rounded=0;entryX=0.5;entryY=1;entryDx=0;entryDy=0;exitX=0.5;exitY=0;exitDx=0;exitDy=0;" parent="HtqLpuslJJa8VXAWMYaq-6" source="HtqLpuslJJa8VXAWMYaq-7" target="HtqLpuslJJa8VXAWMYaq-7" edge="1">
          <mxGeometry width="50" height="50" relative="1" as="geometry">
            <mxPoint x="58" y="50" as="sourcePoint" />
            <mxPoint x="58" y="10" as="targetPoint" />
          </mxGeometry>
        </mxCell>
        <mxCell id="Y-ZxyNCmFBmih7vuNgWr-57" value="" style="endArrow=classic;html=1;rounded=0;exitX=1;exitY=0.5;exitDx=0;exitDy=0;entryX=0;entryY=0.5;entryDx=0;entryDy=0;edgeStyle=orthogonalEdgeStyle;" parent="1" source="Y-ZxyNCmFBmih7vuNgWr-7" target="HtqLpuslJJa8VXAWMYaq-11" edge="1">
          <mxGeometry width="50" height="50" relative="1" as="geometry">
            <mxPoint x="20" y="400" as="sourcePoint" />
            <mxPoint x="153.72000000000003" y="130.20000000000005" as="targetPoint" />
            <Array as="points">
              <mxPoint x="576" y="385" />
              <mxPoint x="576" y="572" />
            </Array>
          </mxGeometry>
        </mxCell>
        <mxCell id="HtqLpuslJJa8VXAWMYaq-38" style="edgeStyle=orthogonalEdgeStyle;rounded=0;orthogonalLoop=1;jettySize=auto;html=1;exitX=1;exitY=0.5;exitDx=0;exitDy=0;entryX=0;entryY=0.25;entryDx=0;entryDy=0;" parent="1" source="HtqLpuslJJa8VXAWMYaq-27" target="Y-ZxyNCmFBmih7vuNgWr-33" edge="1">
          <mxGeometry relative="1" as="geometry">
            <mxPoint x="78" y="451.75" as="targetPoint" />
          </mxGeometry>
        </mxCell>
        <mxCell id="HtqLpuslJJa8VXAWMYaq-41" value="" style="group" parent="1" vertex="1" connectable="0">
          <mxGeometry x="747" y="520" width="300" height="73.5" as="geometry" />
        </mxCell>
        <mxCell id="HtqLpuslJJa8VXAWMYaq-24" value="" style="group" parent="HtqLpuslJJa8VXAWMYaq-41" vertex="1" connectable="0">
          <mxGeometry y="30" width="300" height="43.5" as="geometry" />
        </mxCell>
        <mxCell id="HtqLpuslJJa8VXAWMYaq-11" value="" style="rounded=0;whiteSpace=wrap;html=1;" parent="HtqLpuslJJa8VXAWMYaq-24" vertex="1">
          <mxGeometry y="0.5" width="300" height="42.5" as="geometry" />
        </mxCell>
        <mxCell id="HtqLpuslJJa8VXAWMYaq-13" value="" style="endArrow=none;html=1;rounded=0;entryX=0.75;entryY=0;entryDx=0;entryDy=0;exitX=0.75;exitY=1;exitDx=0;exitDy=0;" parent="HtqLpuslJJa8VXAWMYaq-24" edge="1">
          <mxGeometry width="50" height="50" relative="1" as="geometry">
            <mxPoint x="30" y="43.5" as="sourcePoint" />
            <mxPoint x="30" y="0.5" as="targetPoint" />
          </mxGeometry>
        </mxCell>
        <mxCell id="HtqLpuslJJa8VXAWMYaq-14" value="" style="endArrow=none;html=1;rounded=0;entryX=0.75;entryY=0;entryDx=0;entryDy=0;exitX=0.75;exitY=1;exitDx=0;exitDy=0;" parent="HtqLpuslJJa8VXAWMYaq-24" edge="1">
          <mxGeometry width="50" height="50" relative="1" as="geometry">
            <mxPoint x="60" y="43.5" as="sourcePoint" />
            <mxPoint x="60" y="0.5" as="targetPoint" />
          </mxGeometry>
        </mxCell>
        <mxCell id="HtqLpuslJJa8VXAWMYaq-15" value="" style="endArrow=none;html=1;rounded=0;entryX=0.75;entryY=0;entryDx=0;entryDy=0;exitX=0.75;exitY=1;exitDx=0;exitDy=0;" parent="HtqLpuslJJa8VXAWMYaq-24" edge="1">
          <mxGeometry width="50" height="50" relative="1" as="geometry">
            <mxPoint x="90" y="43" as="sourcePoint" />
            <mxPoint x="90" as="targetPoint" />
          </mxGeometry>
        </mxCell>
        <mxCell id="HtqLpuslJJa8VXAWMYaq-16" value="" style="endArrow=none;html=1;rounded=0;entryX=0.75;entryY=0;entryDx=0;entryDy=0;exitX=0.75;exitY=1;exitDx=0;exitDy=0;" parent="HtqLpuslJJa8VXAWMYaq-24" edge="1">
          <mxGeometry width="50" height="50" relative="1" as="geometry">
            <mxPoint x="120" y="43.25" as="sourcePoint" />
            <mxPoint x="120" y="0.25" as="targetPoint" />
          </mxGeometry>
        </mxCell>
        <mxCell id="HtqLpuslJJa8VXAWMYaq-17" value="" style="endArrow=none;html=1;rounded=0;entryX=0.75;entryY=0;entryDx=0;entryDy=0;exitX=0.75;exitY=1;exitDx=0;exitDy=0;" parent="HtqLpuslJJa8VXAWMYaq-24" edge="1">
          <mxGeometry width="50" height="50" relative="1" as="geometry">
            <mxPoint x="149.86" y="43" as="sourcePoint" />
            <mxPoint x="149.86" as="targetPoint" />
          </mxGeometry>
        </mxCell>
        <mxCell id="HtqLpuslJJa8VXAWMYaq-18" value="" style="endArrow=none;html=1;rounded=0;entryX=0.75;entryY=0;entryDx=0;entryDy=0;exitX=0.75;exitY=1;exitDx=0;exitDy=0;" parent="HtqLpuslJJa8VXAWMYaq-24" edge="1">
          <mxGeometry width="50" height="50" relative="1" as="geometry">
            <mxPoint x="179.86" y="43.25" as="sourcePoint" />
            <mxPoint x="179.86" y="0.25" as="targetPoint" />
          </mxGeometry>
        </mxCell>
        <mxCell id="HtqLpuslJJa8VXAWMYaq-19" value="" style="endArrow=none;html=1;rounded=0;entryX=0.75;entryY=0;entryDx=0;entryDy=0;exitX=0.75;exitY=1;exitDx=0;exitDy=0;" parent="HtqLpuslJJa8VXAWMYaq-24" edge="1">
          <mxGeometry width="50" height="50" relative="1" as="geometry">
            <mxPoint x="210" y="43.5" as="sourcePoint" />
            <mxPoint x="210" y="0.5" as="targetPoint" />
          </mxGeometry>
        </mxCell>
        <mxCell id="HtqLpuslJJa8VXAWMYaq-20" value="" style="endArrow=none;html=1;rounded=0;entryX=0.75;entryY=0;entryDx=0;entryDy=0;exitX=0.75;exitY=1;exitDx=0;exitDy=0;" parent="HtqLpuslJJa8VXAWMYaq-24" edge="1">
          <mxGeometry width="50" height="50" relative="1" as="geometry">
            <mxPoint x="240" y="43.5" as="sourcePoint" />
            <mxPoint x="240" y="0.5" as="targetPoint" />
          </mxGeometry>
        </mxCell>
        <mxCell id="HtqLpuslJJa8VXAWMYaq-22" value="" style="endArrow=none;html=1;rounded=0;entryX=0.75;entryY=0;entryDx=0;entryDy=0;exitX=0.75;exitY=1;exitDx=0;exitDy=0;" parent="HtqLpuslJJa8VXAWMYaq-24" edge="1">
          <mxGeometry width="50" height="50" relative="1" as="geometry">
            <mxPoint x="270" y="43" as="sourcePoint" />
            <mxPoint x="270" as="targetPoint" />
          </mxGeometry>
        </mxCell>
        <mxCell id="HtqLpuslJJa8VXAWMYaq-25" value="O MEM" style="text;html=1;strokeColor=none;fillColor=none;align=center;verticalAlign=middle;whiteSpace=wrap;rounded=0;" parent="HtqLpuslJJa8VXAWMYaq-41" vertex="1">
          <mxGeometry width="60" height="30" as="geometry" />
        </mxCell>
        <mxCell id="HtqLpuslJJa8VXAWMYaq-49" style="edgeStyle=orthogonalEdgeStyle;rounded=0;orthogonalLoop=1;jettySize=auto;html=1;exitX=0.5;exitY=0;exitDx=0;exitDy=0;entryX=0;entryY=0.5;entryDx=0;entryDy=0;" parent="1" source="HtqLpuslJJa8VXAWMYaq-42" target="Y-ZxyNCmFBmih7vuNgWr-20" edge="1">
          <mxGeometry relative="1" as="geometry" />
        </mxCell>
        <mxCell id="HtqLpuslJJa8VXAWMYaq-42" value="" style="shape=trapezoid;perimeter=trapezoidPerimeter;whiteSpace=wrap;html=1;fixedSize=1;rotation=90;" parent="1" vertex="1">
          <mxGeometry x="225" y="290" width="105" height="40" as="geometry" />
        </mxCell>
        <mxCell id="HtqLpuslJJa8VXAWMYaq-45" style="edgeStyle=orthogonalEdgeStyle;rounded=0;orthogonalLoop=1;jettySize=auto;html=1;exitX=0.5;exitY=1;exitDx=0;exitDy=0;entryX=0;entryY=0.5;entryDx=0;entryDy=0;" parent="1" source="HtqLpuslJJa8VXAWMYaq-7" target="HtqLpuslJJa8VXAWMYaq-42" edge="1">
          <mxGeometry relative="1" as="geometry">
            <Array as="points">
              <mxPoint x="240" y="50" />
              <mxPoint x="240" y="146" />
              <mxPoint x="278" y="146" />
              <mxPoint x="278" y="245" />
            </Array>
          </mxGeometry>
        </mxCell>
        <mxCell id="HtqLpuslJJa8VXAWMYaq-46" value="" style="group" parent="1" vertex="1" connectable="0">
          <mxGeometry x="-270" y="500" width="300" height="73.5" as="geometry" />
        </mxCell>
        <mxCell id="HtqLpuslJJa8VXAWMYaq-26" value="" style="group" parent="HtqLpuslJJa8VXAWMYaq-46" vertex="1" connectable="0">
          <mxGeometry y="30" width="300" height="43.5" as="geometry" />
        </mxCell>
        <mxCell id="HtqLpuslJJa8VXAWMYaq-27" value="" style="rounded=0;whiteSpace=wrap;html=1;" parent="HtqLpuslJJa8VXAWMYaq-26" vertex="1">
          <mxGeometry y="0.5" width="300" height="42.5" as="geometry" />
        </mxCell>
        <mxCell id="HtqLpuslJJa8VXAWMYaq-28" value="" style="endArrow=none;html=1;rounded=0;entryX=0.75;entryY=0;entryDx=0;entryDy=0;exitX=0.75;exitY=1;exitDx=0;exitDy=0;" parent="HtqLpuslJJa8VXAWMYaq-26" edge="1">
          <mxGeometry width="50" height="50" relative="1" as="geometry">
            <mxPoint x="30" y="43.5" as="sourcePoint" />
            <mxPoint x="30" y="0.5" as="targetPoint" />
          </mxGeometry>
        </mxCell>
        <mxCell id="HtqLpuslJJa8VXAWMYaq-29" value="" style="endArrow=none;html=1;rounded=0;entryX=0.75;entryY=0;entryDx=0;entryDy=0;exitX=0.75;exitY=1;exitDx=0;exitDy=0;" parent="HtqLpuslJJa8VXAWMYaq-26" edge="1">
          <mxGeometry width="50" height="50" relative="1" as="geometry">
            <mxPoint x="60" y="43.5" as="sourcePoint" />
            <mxPoint x="60" y="0.5" as="targetPoint" />
          </mxGeometry>
        </mxCell>
        <mxCell id="HtqLpuslJJa8VXAWMYaq-30" value="" style="endArrow=none;html=1;rounded=0;entryX=0.75;entryY=0;entryDx=0;entryDy=0;exitX=0.75;exitY=1;exitDx=0;exitDy=0;" parent="HtqLpuslJJa8VXAWMYaq-26" edge="1">
          <mxGeometry width="50" height="50" relative="1" as="geometry">
            <mxPoint x="90" y="43" as="sourcePoint" />
            <mxPoint x="90" as="targetPoint" />
          </mxGeometry>
        </mxCell>
        <mxCell id="HtqLpuslJJa8VXAWMYaq-31" value="" style="endArrow=none;html=1;rounded=0;entryX=0.75;entryY=0;entryDx=0;entryDy=0;exitX=0.75;exitY=1;exitDx=0;exitDy=0;" parent="HtqLpuslJJa8VXAWMYaq-26" edge="1">
          <mxGeometry width="50" height="50" relative="1" as="geometry">
            <mxPoint x="120" y="43.25" as="sourcePoint" />
            <mxPoint x="120" y="0.25" as="targetPoint" />
          </mxGeometry>
        </mxCell>
        <mxCell id="HtqLpuslJJa8VXAWMYaq-32" value="" style="endArrow=none;html=1;rounded=0;entryX=0.75;entryY=0;entryDx=0;entryDy=0;exitX=0.75;exitY=1;exitDx=0;exitDy=0;" parent="HtqLpuslJJa8VXAWMYaq-26" edge="1">
          <mxGeometry width="50" height="50" relative="1" as="geometry">
            <mxPoint x="149.86" y="43" as="sourcePoint" />
            <mxPoint x="149.86" as="targetPoint" />
          </mxGeometry>
        </mxCell>
        <mxCell id="HtqLpuslJJa8VXAWMYaq-33" value="" style="endArrow=none;html=1;rounded=0;entryX=0.75;entryY=0;entryDx=0;entryDy=0;exitX=0.75;exitY=1;exitDx=0;exitDy=0;" parent="HtqLpuslJJa8VXAWMYaq-26" edge="1">
          <mxGeometry width="50" height="50" relative="1" as="geometry">
            <mxPoint x="179.86" y="43.25" as="sourcePoint" />
            <mxPoint x="179.86" y="0.25" as="targetPoint" />
          </mxGeometry>
        </mxCell>
        <mxCell id="HtqLpuslJJa8VXAWMYaq-34" value="" style="endArrow=none;html=1;rounded=0;entryX=0.75;entryY=0;entryDx=0;entryDy=0;exitX=0.75;exitY=1;exitDx=0;exitDy=0;" parent="HtqLpuslJJa8VXAWMYaq-26" edge="1">
          <mxGeometry width="50" height="50" relative="1" as="geometry">
            <mxPoint x="210" y="43.5" as="sourcePoint" />
            <mxPoint x="210" y="0.5" as="targetPoint" />
          </mxGeometry>
        </mxCell>
        <mxCell id="HtqLpuslJJa8VXAWMYaq-35" value="" style="endArrow=none;html=1;rounded=0;entryX=0.75;entryY=0;entryDx=0;entryDy=0;exitX=0.75;exitY=1;exitDx=0;exitDy=0;" parent="HtqLpuslJJa8VXAWMYaq-26" edge="1">
          <mxGeometry width="50" height="50" relative="1" as="geometry">
            <mxPoint x="240" y="43.5" as="sourcePoint" />
            <mxPoint x="240" y="0.5" as="targetPoint" />
          </mxGeometry>
        </mxCell>
        <mxCell id="HtqLpuslJJa8VXAWMYaq-36" value="" style="endArrow=none;html=1;rounded=0;entryX=0.75;entryY=0;entryDx=0;entryDy=0;exitX=0.75;exitY=1;exitDx=0;exitDy=0;" parent="HtqLpuslJJa8VXAWMYaq-26" edge="1">
          <mxGeometry width="50" height="50" relative="1" as="geometry">
            <mxPoint x="270" y="43" as="sourcePoint" />
            <mxPoint x="270" as="targetPoint" />
          </mxGeometry>
        </mxCell>
        <mxCell id="HtqLpuslJJa8VXAWMYaq-37" value="I MEM" style="text;html=1;strokeColor=none;fillColor=none;align=center;verticalAlign=middle;whiteSpace=wrap;rounded=0;" parent="HtqLpuslJJa8VXAWMYaq-46" vertex="1">
          <mxGeometry width="60" height="30" as="geometry" />
        </mxCell>
        <mxCell id="HtqLpuslJJa8VXAWMYaq-53" style="edgeStyle=orthogonalEdgeStyle;rounded=0;orthogonalLoop=1;jettySize=auto;html=1;exitX=1;exitY=0.5;exitDx=0;exitDy=0;entryX=0.25;entryY=1;entryDx=0;entryDy=0;" parent="1" source="HtqLpuslJJa8VXAWMYaq-48" target="HtqLpuslJJa8VXAWMYaq-42" edge="1">
          <mxGeometry relative="1" as="geometry">
            <Array as="points">
              <mxPoint x="183" y="284" />
            </Array>
          </mxGeometry>
        </mxCell>
        <mxCell id="HtqLpuslJJa8VXAWMYaq-48" value="0" style="rounded=0;whiteSpace=wrap;html=1;" parent="1" vertex="1">
          <mxGeometry x="160" y="270" width="40" height="30" as="geometry" />
        </mxCell>
        <mxCell id="HtqLpuslJJa8VXAWMYaq-58" style="edgeStyle=orthogonalEdgeStyle;rounded=0;orthogonalLoop=1;jettySize=auto;html=1;exitX=0.75;exitY=1;exitDx=0;exitDy=0;entryX=0;entryY=0.75;entryDx=0;entryDy=0;" parent="1" source="HtqLpuslJJa8VXAWMYaq-54" target="Y-ZxyNCmFBmih7vuNgWr-7" edge="1">
          <mxGeometry relative="1" as="geometry">
            <Array as="points">
              <mxPoint x="480" y="672" />
              <mxPoint x="480" y="397" />
            </Array>
          </mxGeometry>
        </mxCell>
        <mxCell id="HtqLpuslJJa8VXAWMYaq-59" style="edgeStyle=orthogonalEdgeStyle;rounded=0;orthogonalLoop=1;jettySize=auto;html=1;exitX=0.75;exitY=1;exitDx=0;exitDy=0;entryX=0;entryY=0.5;entryDx=0;entryDy=0;" parent="1" source="HtqLpuslJJa8VXAWMYaq-54" target="HtqLpuslJJa8VXAWMYaq-42" edge="1">
          <mxGeometry relative="1" as="geometry">
            <Array as="points">
              <mxPoint x="460" y="672" />
              <mxPoint x="460" y="250" />
              <mxPoint x="278" y="250" />
            </Array>
          </mxGeometry>
        </mxCell>
        <mxCell id="HtqLpuslJJa8VXAWMYaq-54" value="" style="shape=trapezoid;perimeter=trapezoidPerimeter;whiteSpace=wrap;html=1;fixedSize=1;rotation=-90;" parent="1" vertex="1">
          <mxGeometry x="305" y="674" width="94" height="43" as="geometry" />
        </mxCell>
        <mxCell id="HtqLpuslJJa8VXAWMYaq-57" style="edgeStyle=orthogonalEdgeStyle;rounded=0;orthogonalLoop=1;jettySize=auto;html=1;exitX=0.25;exitY=1;exitDx=0;exitDy=0;entryX=0;entryY=0.75;entryDx=0;entryDy=0;" parent="1" source="HtqLpuslJJa8VXAWMYaq-54" target="Y-ZxyNCmFBmih7vuNgWr-33" edge="1">
          <mxGeometry relative="1" as="geometry">
            <Array as="points">
              <mxPoint x="390" y="719" />
              <mxPoint x="390" y="750" />
              <mxPoint x="60" y="750" />
              <mxPoint x="60" y="560" />
              <mxPoint x="119" y="560" />
            </Array>
          </mxGeometry>
        </mxCell>
        <mxCell id="HtqLpuslJJa8VXAWMYaq-63" style="edgeStyle=orthogonalEdgeStyle;rounded=0;orthogonalLoop=1;jettySize=auto;html=1;exitX=0.5;exitY=0;exitDx=0;exitDy=0;entryX=0.132;entryY=0.961;entryDx=0;entryDy=0;entryPerimeter=0;" parent="1" source="Y-ZxyNCmFBmih7vuNgWr-7" edge="1">
          <mxGeometry relative="1" as="geometry">
            <Array as="points">
              <mxPoint x="531" y="314" />
            </Array>
            <mxPoint x="802.3400000000001" y="314.03999999999996" as="targetPoint" />
          </mxGeometry>
        </mxCell>
        <mxCell id="HtqLpuslJJa8VXAWMYaq-64" value="rdy1" style="text;html=1;strokeColor=none;fillColor=none;align=center;verticalAlign=middle;whiteSpace=wrap;rounded=0;" parent="1" vertex="1">
          <mxGeometry x="660" y="285" width="60" height="30" as="geometry" />
        </mxCell>
        <mxCell id="9N4TQlj-FH_inLGHtenE-3" value="" style="endArrow=classic;html=1;rounded=0;" edge="1" parent="1">
          <mxGeometry width="50" height="50" relative="1" as="geometry">
            <mxPoint x="630" y="350" as="sourcePoint" />
            <mxPoint x="800" y="350" as="targetPoint" />
          </mxGeometry>
        </mxCell>
        <mxCell id="9N4TQlj-FH_inLGHtenE-4" value="rdy2" style="text;html=1;strokeColor=none;fillColor=none;align=center;verticalAlign=middle;whiteSpace=wrap;rounded=0;" vertex="1" parent="1">
          <mxGeometry x="660" y="315" width="60" height="30" as="geometry" />
        </mxCell>
        <mxCell id="9N4TQlj-FH_inLGHtenE-6" value="&lt;font style=&quot;font-size: 18px;&quot;&gt;&lt;b&gt;.&lt;br&gt;.&lt;br&gt;.&lt;/b&gt;&lt;/font&gt;" style="text;html=1;strokeColor=none;fillColor=none;align=center;verticalAlign=middle;whiteSpace=wrap;rounded=0;" vertex="1" parent="1">
          <mxGeometry x="365" y="830" width="60" height="30" as="geometry" />
        </mxCell>
        <mxCell id="9N4TQlj-FH_inLGHtenE-8" value="" style="endArrow=classic;html=1;rounded=0;" edge="1" parent="1">
          <mxGeometry width="50" height="50" relative="1" as="geometry">
            <mxPoint x="680" y="460" as="sourcePoint" />
            <mxPoint x="800" y="460" as="targetPoint" />
          </mxGeometry>
        </mxCell>
        <mxCell id="9N4TQlj-FH_inLGHtenE-9" value="rdy10" style="text;html=1;strokeColor=none;fillColor=none;align=center;verticalAlign=middle;whiteSpace=wrap;rounded=0;" vertex="1" parent="1">
          <mxGeometry x="710" y="425" width="60" height="30" as="geometry" />
        </mxCell>
        <mxCell id="9N4TQlj-FH_inLGHtenE-11" style="edgeStyle=orthogonalEdgeStyle;rounded=0;orthogonalLoop=1;jettySize=auto;html=1;exitX=1;exitY=0.5;exitDx=0;exitDy=0;" edge="1" parent="1" source="9N4TQlj-FH_inLGHtenE-10">
          <mxGeometry relative="1" as="geometry">
            <mxPoint x="210" y="50" as="targetPoint" />
          </mxGeometry>
        </mxCell>
        <mxCell id="9N4TQlj-FH_inLGHtenE-10" value="&lt;b&gt;&amp;amp;&lt;/b&gt;" style="rounded=0;whiteSpace=wrap;html=1;" vertex="1" parent="1">
          <mxGeometry x="800" y="280" width="100" height="200" as="geometry" />
        </mxCell>
        <mxCell id="9N4TQlj-FH_inLGHtenE-12" value="&lt;font style=&quot;font-size: 18px;&quot;&gt;&lt;b&gt;.&lt;br&gt;.&lt;br&gt;.&lt;/b&gt;&lt;/font&gt;" style="text;html=1;strokeColor=none;fillColor=none;align=center;verticalAlign=middle;whiteSpace=wrap;rounded=0;" vertex="1" parent="1">
          <mxGeometry x="740" y="370" width="60" height="30" as="geometry" />
        </mxCell>
      </root>
    </mxGraphModel>
  </diagram>
</mxfile>
